font.ufo
<glyph name="uni0041" format="1">
	<advance width="520"/>
	<unicode hex="0041"/>
	<outline>
<contour>
<point x="420" y="0" type="line"/>
<point x="350" y="250" type="line"/>
<point x="170" y="250" type="line"/>
<point x="100" y="0" type="line"/>
<point x="0" y="0" type="line"/>
<point x="70" y="250" type="line"/>
<point x="70" y="250" type="line"/>
<point x="75" y="270" type="line"/>
<point x="209" y="750" type="line"/>
<point x="311" y="750" type="line"/>
<point x="445" y="270" type="line"/>
<point x="451" y="250" type="line"/>
<point x="451" y="250" type="line"/>
<point x="520" y="0" type="line"/>
</contour>
<contour>
<point x="507" y="10" type="line"/>
<point x="440" y="250" type="line"/>
<point x="361" y="250" type="line"/>
<point x="428" y="10" type="line"/>
</contour>
<contour>
<point x="435" y="268" type="line"/>
<point x="415" y="340" type="line"/>
<point x="336" y="340" type="line"/>
<point x="358" y="260" type="line"/>
<point x="437" y="260" type="line"/>
</contour>
<contour>
<point x="412" y="349" type="line"/>
<point x="305" y="735" type="line"/>
<point x="265" y="593" type="line"/>
<point x="333" y="350" type="line"/>
</contour>
<contour>
<point x="323" y="350" type="line"/>
<point x="260" y="574" type="line"/>
<point x="197" y="350" type="line"/>
</contour>
<contour>
<point x="296" y="740" type="line"/>
<point x="224" y="740" type="line"/>
<point x="260" y="611" type="line"/>
</contour>
<contour>
<point x="215" y="735" type="line"/>
<point x="108" y="350" type="line"/>
<point x="187" y="350" type="line"/>
<point x="255" y="593" type="line"/>
</contour>
<contour>
<point x="83" y="259" type="line"/>
<point x="162" y="259" type="line"/>
<point x="184" y="339" type="line"/>
<point x="105" y="339" type="line"/>
</contour>
<contour>
<point x="92" y="10" type="line"/>
<point x="159" y="250" type="line"/>
<point x="80" y="250" type="line"/>
<point x="13" y="10" type="line"/>
</contour>
<contour>
<point x="172" y="259" type="line"/>
<point x="348" y="259" type="line"/>
<point x="325" y="339" type="line"/>
<point x="195" y="339" type="line"/>
</contour>
</outline>
</glyph>
<glyph name="uni0046" format="1">
	<advance width="520"/>
	<unicode hex="0046"/>
	<outline>
<contour>
<point x="520" y="650" type="line"/>
<point x="100" y="650" type="line"/>
<point x="100" y="425" type="line"/>
<point x="389" y="425" type="line"/>
<point x="389" y="325" type="line"/>
<point x="100" y="325" type="line"/>
<point x="100" y="0" type="line"/>
<point x="0" y="0" type="line"/>
<point x="0" y="750" type="line"/>
<point x="520" y="750" type="line"/>
</contour>
<contour>
<point x="510" y="740" type="line"/>
<point x="100" y="740" type="line"/>
<point x="100" y="660" type="line"/>
<point x="510" y="660" type="line"/>
</contour>
<contour>
<point x="10" y="740" type="line"/>
<point x="10" y="660" type="line"/>
<point x="90" y="660" type="line"/>
<point x="90" y="740" type="line"/>
</contour>
<contour>
<point x="10" y="415" type="line"/>
<point x="10" y="335" type="line"/>
<point x="90" y="335" type="line"/>
<point x="90" y="415" type="line"/>
</contour>
<contour>
<point x="90" y="10" type="line"/>
<point x="90" y="325" type="line"/>
<point x="10" y="325" type="line"/>
<point x="10" y="10" type="line"/>
</contour>
<contour>
<point x="379" y="415" type="line"/>
<point x="100" y="415" type="line"/>
<point x="100" y="335" type="line"/>
<point x="379" y="335" type="line"/>
</contour>
<contour>
<point x="90" y="425" type="line"/>
<point x="90" y="650" type="line"/>
<point x="10" y="650" type="line"/>
<point x="10" y="425" type="line"/>
</contour>
</outline>
</glyph>
<glyph name="uni0048" format="1">
	<advance width="520"/>
	<unicode hex="0048"/>
	<outline>
<contour>
<point x="421" y="750" type="line"/>
<point x="521" y="750" type="line"/>
<point x="521" y="-1" type="line"/>
<point x="421" y="-1" type="line"/>
<point x="421" y="325" type="line"/>
<point x="100" y="325" type="line"/>
<point x="100" y="0" type="line"/>
<point x="0" y="0" type="line"/>
<point x="0" y="750" type="line"/>
<point x="100" y="750" type="line"/>
<point x="100" y="425" type="line"/>
<point x="421" y="425" type="line"/>
</contour>
<contour>
<point x="431" y="740" type="line"/>
<point x="431" y="425" type="line"/>
<point x="511" y="425" type="line"/>
<point x="511" y="740" type="line"/>
</contour>
<contour>
<point x="510" y="415" type="line"/>
<point x="431" y="415" type="line"/>
<point x="431" y="335" type="line"/>
<point x="510" y="335" type="line"/>
</contour>
<contour>
<point x="10" y="740" type="line"/>
<point x="10" y="425" type="line"/>
<point x="90" y="425" type="line"/>
<point x="90" y="740" type="line"/>
</contour>
<contour>
<point x="90" y="415" type="line"/>
<point x="10" y="415" type="line"/>
<point x="10" y="335" type="line"/>
<point x="90" y="335" type="line"/>
</contour>
<contour>
<point x="90" y="10" type="line"/>
<point x="90" y="325" type="line"/>
<point x="10" y="325" type="line"/>
<point x="10" y="10" type="line"/>
</contour>
<contour>
<point x="100" y="335" type="line"/>
<point x="421" y="335" type="line"/>
<point x="421" y="415" type="line"/>
<point x="100" y="415" type="line"/>
</contour>
<contour>
<point x="431" y="10" type="line"/>
<point x="511" y="10" type="line"/>
<point x="511" y="325" type="line"/>
<point x="431" y="325" type="line"/>
</contour>
</outline>
</glyph>
<glyph name="uni0049" format="1">
	<advance width="520"/>
	<unicode hex="0049"/>
	<outline>
<contour>
<point x="310" y="100" type="line"/>
<point x="521" y="100" type="line"/>
<point x="521" y="-1" type="line"/>
<point x="1" y="-1" type="line"/>
<point x="1" y="100" type="line"/>
<point x="210" y="100" type="line"/>
<point x="210" y="650" type="line"/>
<point x="0" y="650" type="line"/>
<point x="0" y="750" type="line"/>
<point x="520" y="750" type="line"/>
<point x="520" y="650" type="line"/>
<point x="310" y="650" type="line"/>
</contour>
<contour>
<point x="510" y="660" type="line"/>
<point x="510" y="740" type="line"/>
<point x="310" y="740" type="line"/>
<point x="310" y="660" type="line"/>
</contour>
<contour>
<point x="300" y="740" type="line"/>
<point x="220" y="740" type="line"/>
<point x="220" y="660" type="line"/>
<point x="300" y="660" type="line"/>
</contour>
<contour>
<point x="10" y="660" type="line"/>
<point x="210" y="660" type="line"/>
<point x="210" y="740" type="line"/>
<point x="10" y="740" type="line"/>
</contour>
<contour>
<point x="220" y="650" type="line"/>
<point x="220" y="100" type="line"/>
<point x="300" y="100" type="line"/>
<point x="300" y="650" type="line"/>
</contour>
<contour>
<point x="220" y="10" type="line"/>
<point x="300" y="10" type="line"/>
<point x="300" y="89" type="line"/>
<point x="220" y="89" type="line"/>
</contour>
<contour>
<point x="11" y="89" type="line"/>
<point x="11" y="9" type="line"/>
<point x="210" y="9" type="line"/>
<point x="210" y="89" type="line"/>
</contour>
<contour>
<point x="510" y="10" type="line"/>
<point x="510" y="90" type="line"/>
<point x="310" y="90" type="line"/>
<point x="310" y="10" type="line"/>
</contour>
</outline>
</glyph>
<glyph name="uni004B" format="1">
	<advance width="522"/>
	<unicode hex="004B"/>
	<outline>
<contour>
<point x="523" y="750" type="line"/>
<point x="108" y="375" type="line"/>
<point x="523" y="0" type="line"/>
<point x="393" y="0" type="line"/>
<point x="100" y="265" type="line"/>
<point x="100" y="0" type="line"/>
<point x="0" y="0" type="line"/>
<point x="0" y="750" type="line"/>
<point x="100" y="750" type="line"/>
<point x="100" y="485" type="line"/>
<point x="393" y="750" type="line"/>
</contour>
<contour>
<point x="10" y="381" type="line"/>
<point x="90" y="381" type="line"/>
<point x="90" y="462" type="line"/>
<point x="10" y="390" type="line"/>
</contour>
<contour>
<point x="397" y="740" type="line"/>
<point x="100" y="471" type="line"/>
<point x="100" y="381" type="line"/>
<point x="497" y="740" type="line"/>
</contour>
<contour>
<point x="10" y="740" type="line"/>
<point x="10" y="403" type="line"/>
<point x="90" y="476" type="line"/>
<point x="90" y="740" type="line"/>
</contour>
<contour>
<point x="90" y="369" type="line"/>
<point x="10" y="369" type="line"/>
<point x="10" y="361" type="line"/>
<point x="90" y="288" type="line"/>
</contour>
<contour>
<point x="90" y="10" type="line"/>
<point x="90" y="275" type="line"/>
<point x="10" y="347" type="line"/>
<point x="10" y="10" type="line"/>
</contour>
<contour>
<point x="397" y="10" type="line"/>
<point x="497" y="10" type="line"/>
<point x="100" y="369" type="line"/>
<point x="100" y="279" type="line"/>
</contour>
</outline>
</glyph>
<glyph name="uni004C" format="1">
	<advance width="520"/>
	<unicode hex="004C"/>
	<outline>
<contour>
<point x="100" y="101" type="line"/>
<point x="521" y="101" type="line"/>
<point x="521" y="1" type="line"/>
<point x="0" y="1" type="line"/>
<point x="0" y="751" type="line"/>
<point x="100" y="751" type="line"/>
</contour>
<contour>
<point x="91" y="741" type="line"/>
<point x="10" y="741" type="line"/>
<point x="10" y="101" type="line"/>
<point x="90" y="101" type="line"/>
</contour>
<contour>
<point x="11" y="11" type="line"/>
<point x="90" y="11" type="line"/>
<point x="90" y="91" type="line"/>
<point x="11" y="91" type="line"/>
</contour>
<contour>
<point x="512" y="11" type="line"/>
<point x="512" y="91" type="line"/>
<point x="100" y="91" type="line"/>
<point x="100" y="11" type="line"/>
</contour>
</outline>
</glyph>
<glyph name="uni004D" format="1">
	<advance width="519"/>
	<unicode hex="004D"/>
	<outline>
<contour>
<point x="520" y="750" type="line"/>
<point x="519" y="749" type="line"/>
<point x="519" y="1" type="line"/>
<point x="419" y="1" type="line"/>
<point x="419" y="596" type="line"/>
<point x="310" y="429" type="line"/>
<point x="210" y="429" type="line"/>
<point x="210" y="430" type="line"/>
<point x="210" y="430" type="line"/>
<point x="100" y="597" type="line"/>
<point x="100" y="1" type="line"/>
<point x="0" y="1" type="line"/>
<point x="0" y="751" type="line"/>
<point x="100" y="751" type="line"/>
<point x="260" y="506" type="line"/>
<point x="419" y="749" type="line"/>
<point x="419" y="751" type="line"/>
<point x="519" y="751" type="line"/>
<point x="519" y="750" type="line"/>
</contour>
<contour>
<point x="429" y="740" type="line"/>
<point x="429" y="630" type="line"/>
<point x="501" y="740" type="line"/>
</contour>
<contour>
<point x="90" y="741" type="line"/>
<point x="19" y="741" type="line"/>
<point x="90" y="631" type="line"/>
</contour>
<contour>
<point x="90" y="11" type="line"/>
<point x="90" y="613" type="line"/>
<point x="10" y="735" type="line"/>
<point x="10" y="11" type="line"/>
</contour>
<contour>
<point x="215" y="440" type="line"/>
<point x="216" y="440" type="line"/>
<point x="254" y="496" type="line"/>
<point x="100" y="732" type="line"/>
<point x="100" y="616" type="line"/>
</contour>
<contour>
<point x="229" y="440" type="line"/>
<point x="291" y="440" type="line"/>
<point x="260" y="487" type="line"/>
</contour>
<contour>
<point x="305" y="440" type="line"/>
<point x="419" y="614" type="line"/>
<point x="419" y="731" type="line"/>
<point x="266" y="496" type="line"/>
<point x="303" y="439" type="line"/>
</contour>
<contour>
<point x="509" y="11" type="line"/>
<point x="509" y="734" type="line"/>
<point x="429" y="611" type="line"/>
<point x="429" y="11" type="line"/>
</contour>
</outline>
</glyph>
<glyph name="uni004E" format="1">
	<advance width="521"/>
	<unicode hex="004E"/>
	<outline>
<contour>
<point x="421" y="750" type="line"/>
<point x="521" y="750" type="line"/>
<point x="521" y="-1" type="line"/>
<point x="408" y="-1" type="line"/>
<point x="101" y="566" type="line"/>
<point x="101" y="0" type="line"/>
<point x="1" y="0" type="line"/>
<point x="1" y="750" type="line"/>
<point x="0" y="751" type="line"/>
<point x="58" y="750" type="line"/>
<point x="101" y="750" type="line"/>
<point x="101" y="750" type="line"/>
<point x="115" y="750" type="line"/>
<point x="421" y="184" type="line"/>
</contour>
<contour>
<point x="58" y="740" type="line"/>
<point x="17" y="740" type="line"/>
<point x="91" y="605" type="line"/>
<point x="91" y="740" type="line"/>
</contour>
<contour>
<point x="91" y="10" type="line"/>
<point x="91" y="584" type="line"/>
<point x="11" y="731" type="line"/>
<point x="11" y="10" type="line"/>
</contour>
<contour>
<point x="414" y="10" type="line"/>
<point x="421" y="10" type="line"/>
<point x="421" y="163" type="line"/>
<point x="109" y="740" type="line"/>
<point x="101" y="740" type="line"/>
<point x="101" y="586" type="line"/>
</contour>
<contour>
<point x="431" y="10" type="line"/>
<point x="504" y="10" type="line"/>
<point x="431" y="145" type="line"/>
</contour>
<contour>
<point x="432" y="166" type="line"/>
<point x="511" y="18" type="line"/>
<point x="511" y="740" type="line"/>
<point x="431" y="740" type="line"/>
</contour>
</outline>
</glyph>
<glyph name="uni0054" format="1">
	<advance width="520"/>
	<unicode hex="0054"/>
	<outline>
<contour>
<point x="520" y="751" type="line"/>
<point x="520" y="651" type="line"/>
<point x="311" y="651" type="line"/>
<point x="311" y="1" type="line"/>
<point x="211" y="1" type="line"/>
<point x="211" y="651" type="line"/>
<point x="0" y="651" type="line"/>
<point x="0" y="751" type="line"/>
<point x="520" y="751" type="line"/>
</contour>
<contour>
<point x="301" y="741" type="line"/>
<point x="221" y="741" type="line"/>
<point x="221" y="661" type="line"/>
<point x="301" y="661" type="line"/>
</contour>
<contour>
<point x="10" y="661" type="line"/>
<point x="211" y="661" type="line"/>
<point x="211" y="741" type="line"/>
<point x="10" y="741" type="line"/>
</contour>
<contour>
<point x="301" y="11" type="line"/>
<point x="301" y="651" type="line"/>
<point x="221" y="651" type="line"/>
<point x="221" y="11" type="line"/>
</contour>
<contour>
<point x="511" y="661" type="line"/>
<point x="511" y="741" type="line"/>
<point x="311" y="741" type="line"/>
<point x="311" y="661" type="line"/>
</contour>
</outline>
</glyph>
<glyph name="uni0056" format="1">
	<advance width="519"/>
	<unicode hex="0056"/>
	<outline>
<contour>
<point x="419" y="750" type="line"/>
<point x="519" y="750" type="line"/>
<point x="310" y="0" type="line"/>
<point x="209" y="0" type="line"/>
<point x="0" y="750" type="line"/>
<point x="100" y="750" type="line"/>
<point x="260" y="178" type="line"/>
</contour>
<contour>
<point x="13" y="740" type="line"/>
<point x="215" y="17" type="line"/>
<point x="254" y="159" type="line"/>
<point x="92" y="740" type="line"/>
</contour>
<contour>
<point x="223" y="10" type="line"/>
<point x="296" y="10" type="line"/>
<point x="260" y="140" type="line"/>
</contour>
<contour>
<point x="304" y="17" type="line"/>
<point x="506" y="740" type="line"/>
<point x="427" y="740" type="line"/>
<point x="265" y="159" type="line"/>
</contour>
</outline>
</glyph>
<glyph name="uni0057" format="1">
	<advance width="520"/>
	<unicode hex="0057"/>
	<outline>
<contour>
<point x="420" y="750" type="line"/>
<point x="520" y="750" type="line"/>
<point x="415" y="-1" type="line"/>
<point x="314" y="-1" type="line"/>
<point x="314" y="1" type="line"/>
<point x="260" y="392" type="line"/>
<point x="205" y="0" type="line"/>
<point x="104" y="0" type="line"/>
<point x="104" y="2" type="line"/>
<point x="0" y="750" type="line"/>
<point x="100" y="750" type="line"/>
<point x="155" y="358" type="line"/>
<point x="210" y="750" type="line"/>
<point x="310" y="750" type="line"/>
<point x="310" y="750" type="line"/>
<point x="310" y="750" type="line"/>
<point x="365" y="358" type="line"/>
</contour>
<contour>
<point x="299" y="739" type="line"/>
<point x="222" y="739" type="line"/>
<point x="260" y="464" type="line"/>
</contour>
<contour>
<point x="12" y="740" type="line"/>
<point x="109" y="38" type="line"/>
<point x="150" y="322" type="line"/>
<point x="91" y="740" type="line"/>
</contour>
<contour>
<point x="116" y="10" type="line"/>
<point x="193" y="10" type="line"/>
<point x="155" y="286" type="line"/>
</contour>
<contour>
<point x="200" y="34" type="line"/>
<point x="255" y="428" type="line"/>
<point x="215" y="714" type="line"/>
<point x="160" y="322" type="line"/>
</contour>
<contour>
<point x="265" y="428" type="line"/>
<point x="319" y="37" type="line"/>
<point x="360" y="322" type="line"/>
<point x="305" y="714" type="line"/>
</contour>
<contour>
<point x="326" y="10" type="line"/>
<point x="403" y="10" type="line"/>
<point x="365" y="286" type="line"/>
</contour>
<contour>
<point x="410" y="34" type="line"/>
<point x="509" y="740" type="line"/>
<point x="429" y="740" type="line"/>
<point x="370" y="322" type="line"/>
</contour>
</outline>
</glyph>
<glyph name="uni0058" format="1">
	<advance width="519"/>
	<unicode hex="0058"/>
	<outline>
<contour>
<point x="519" y="750" type="line"/>
<point x="310" y="375" type="line"/>
<point x="519" y="0" type="line"/>
<point x="419" y="0" type="line"/>
<point x="260" y="286" type="line"/>
<point x="100" y="0" type="line"/>
<point x="0" y="0" type="line"/>
<point x="210" y="375" type="line"/>
<point x="0" y="750" type="line"/>
<point x="100" y="750" type="line"/>
<point x="260" y="465" type="line"/>
<point x="419" y="750" type="line"/>
</contour>
<contour>
<point x="425" y="740" type="line"/>
<point x="265" y="454" type="line"/>
<point x="304" y="385" type="line"/>
<point x="502" y="740" type="line"/>
</contour>
<contour>
<point x="298" y="375" type="line"/>
<point x="260" y="444" type="line"/>
<point x="221" y="375" type="line"/>
<point x="260" y="306" type="line"/>
</contour>
<contour>
<point x="17" y="740" type="line"/>
<point x="215" y="385" type="line"/>
<point x="254" y="454" type="line"/>
<point x="94" y="740" type="line"/>
</contour>
<contour>
<point x="94" y="10" type="line"/>
<point x="254" y="296" type="line"/>
<point x="215" y="365" type="line"/>
<point x="17" y="10" type="line"/>
</contour>
<contour>
<point x="502" y="10" type="line"/>
<point x="304" y="365" type="line"/>
<point x="265" y="296" type="line"/>
<point x="425" y="10" type="line"/>
</contour>
</outline>
</glyph>
<glyph name="uni0059" format="1">
	<advance width="521"/>
	<unicode hex="0059"/>
	<outline>
<contour>
<point x="421" y="750" type="line"/>
<point x="521" y="750" type="line"/>
<point x="311" y="350" type="line"/>
<point x="311" y="350" type="line"/>
<point x="311" y="0" type="line"/>
<point x="211" y="0" type="line"/>
<point x="211" y="350" type="line"/>
<point x="210" y="350" type="line"/>
<point x="0" y="750" type="line"/>
<point x="100" y="750" type="line"/>
<point x="261" y="444" type="line"/>
</contour>
<contour>
<point x="17" y="740" type="line"/>
<point x="216" y="360" type="line"/>
<point x="216" y="360" type="line"/>
<point x="255" y="433" type="line"/>
<point x="94" y="740" type="line"/>
</contour>
<contour>
<point x="261" y="422" type="line"/>
<point x="228" y="360" type="line"/>
<point x="294" y="360" type="line"/>
</contour>
<contour>
<point x="301" y="10" type="line"/>
<point x="301" y="350" type="line"/>
<point x="221" y="350" type="line"/>
<point x="221" y="10" type="line"/>
</contour>
<contour>
<point x="305" y="359" type="line"/>
<point x="505" y="740" type="line"/>
<point x="427" y="740" type="line"/>
<point x="266" y="433" type="line"/>
<point x="305" y="359" type="line"/>
</contour>
</outline>
</glyph>
<glyph name="uni005A" format="1">
	<advance width="520"/>
	<unicode hex="005A"/>
	<outline>
<contour>
<point x="520" y="650" type="line"/>
<point x="114" y="100" type="line"/>
<point x="520" y="100" type="line"/>
<point x="520" y="0" type="line"/>
<point x="0" y="0" type="line"/>
<point x="0" y="90" type="line"/>
<point x="0" y="90" type="line"/>
<point x="0" y="100" type="line"/>
<point x="0" y="100" type="line"/>
<point x="406" y="650" type="line"/>
<point x="0" y="650" type="line"/>
<point x="0" y="750" type="line"/>
<point x="520" y="750" type="line"/>
<point x="520" y="660" type="line"/>
</contour>
<contour>
<point x="10" y="660" type="line"/>
<point x="510" y="660" type="line"/>
<point x="510" y="740" type="line"/>
<point x="10" y="740" type="line"/>
</contour>
<contour>
<point x="419" y="650" type="line"/>
<point x="11" y="100" type="line"/>
<point x="101" y="100" type="line"/>
<point x="509" y="650" type="line"/>
</contour>
<contour>
<point x="510" y="90" type="line"/>
<point x="107" y="90" type="line"/>
<point x="10" y="90" type="line"/>
<point x="10" y="10" type="line"/>
<point x="510" y="10" type="line"/>
</contour>
</outline>
</glyph>
<glyph name="uni0069" format="1">
	<advance width="100"/>
	<unicode hex="0069"/>
	<outline>
<contour>
<point x="0" y="350" type="line"/>
<point x="100" y="350" type="line"/>
<point x="100" y="0" type="line"/>
<point x="0" y="0" type="line"/>
</contour>
<contour>
<point x="90" y="10" type="line"/>
<point x="90" y="340" type="line"/>
<point x="10" y="340" type="line"/>
<point x="10" y="10" type="line"/>
</contour>
</outline>
</glyph>
<glyph name="uni006B" format="1">
	<advance width="348"/>
	<unicode hex="006B"/>
	<outline>
<contour>
<point x="349" y="0" type="line"/>
<point x="229" y="0" type="line"/>
<point x="100" y="156" type="line"/>
<point x="100" y="0" type="line"/>
<point x="0" y="0" type="line"/>
<point x="0" y="612" type="line"/>
<point x="100" y="612" type="line"/>
<point x="100" y="193" type="line"/>
<point x="229" y="350" type="line"/>
<point x="348" y="350" type="line"/>
<point x="205" y="175" type="line"/>
</contour>
<contour>
<point x="234" y="340" type="line"/>
<point x="102" y="180" type="line"/>
<point x="196" y="180" type="line"/>
<point x="327" y="340" type="line"/>
</contour>
<contour>
<point x="90" y="10" type="line"/>
<point x="90" y="168" type="line"/>
<point x="89" y="170" type="line"/>
<point x="89" y="170" type="line"/>
<point x="85" y="175" type="line"/>
<point x="90" y="181" type="line"/>
<point x="90" y="602" type="line"/>
<point x="10" y="602" type="line"/>
<point x="10" y="10" type="line"/>
</contour>
<contour>
<point x="196" y="170" type="line"/>
<point x="102" y="170" type="line"/>
<point x="234" y="10" type="line"/>
<point x="327" y="10" type="line"/>
</contour>
</outline>
</glyph>
<glyph name="uni006C" format="1">
	<advance width="100"/>
	<unicode hex="006C"/>
	<outline>
<contour>
<point x="0" y="612" type="line"/>
<point x="100" y="612" type="line"/>
<point x="100" y="0" type="line"/>
<point x="0" y="0" type="line"/>
</contour>
<contour>
<point x="90" y="10" type="line"/>
<point x="90" y="602" type="line"/>
<point x="10" y="602" type="line"/>
<point x="10" y="10" type="line"/>
</contour>
</outline>
</glyph>
<glyph name="uni0074" format="1">
	<advance width="349"/>
	<unicode hex="0074"/>
	<outline>
<contour>
<point x="349" y="450" type="line"/>
<point x="349" y="350" type="line"/>
<point x="225" y="350" type="line"/>
<point x="225" y="0" type="line"/>
<point x="125" y="0" type="line"/>
<point x="125" y="350" type="line"/>
<point x="0" y="350" type="line"/>
<point x="0" y="450" type="line"/>
<point x="125" y="450" type="line"/>
<point x="125" y="612" type="line"/>
<point x="225" y="612" type="line"/>
<point x="225" y="450" type="line"/>
</contour>
<contour>
<point x="135" y="602" type="line"/>
<point x="135" y="450" type="line"/>
<point x="215" y="450" type="line"/>
<point x="215" y="602" type="line"/>
</contour>
<contour>
<point x="215" y="440" type="line"/>
<point x="135" y="440" type="line"/>
<point x="135" y="360" type="line"/>
<point x="215" y="360" type="line"/>
</contour>
<contour>
<point x="11" y="360" type="line"/>
<point x="125" y="360" type="line"/>
<point x="125" y="440" type="line"/>
<point x="10" y="440" type="line"/>
</contour>
<contour>
<point x="215" y="10" type="line"/>
<point x="215" y="350" type="line"/>
<point x="135" y="350" type="line"/>
<point x="135" y="10" type="line"/>
</contour>
<contour>
<point x="339" y="360" type="line"/>
<point x="339" y="440" type="line"/>
<point x="225" y="440" type="line"/>
<point x="225" y="360" type="line"/>
</contour>
</outline>
</glyph>
<glyph name="uni0075" format="1">
	<advance width="348"/>
	<unicode hex="0075"/>
	<outline>
<contour>
<point x="249" y="350" type="line"/>
<point x="349" y="350" type="line"/>
<point x="349" y="-1" type="line"/>
<point x="249" y="-1" type="line"/>
<point x="249" y="14" type="line"/>
<point x="250" y="13" type="line"/>
<point x="229" y="5"/>
<point x="205" y="-0"/>
<point x="176" y="-0" type="curve" smooth="yes"/>
<point x="177" y="1" type="line"/>
<point x="177" y="-1" type="line"/>
<point x="1" y="1"/>
<point x="0" y="176"/>
<point x="0" y="176" type="curve" smooth="yes"/>
<point x="1" y="177" type="line"/>
<point x="0" y="350" type="line"/>
<point x="100" y="350" type="line"/>
<point x="100" y="176" type="line"/>
<point x="100" y="175" type="line"/>
<point x="101" y="174"/>
<point x="99" y="99"/>
<point x="175" y="99" type="curve" smooth="yes"/>
<point x="176" y="100" type="line"/>
<point x="176" y="98"/>
<point x="249" y="99"/>
<point x="249" y="175" type="curve" smooth="yes"/>
<point x="250" y="176" type="line"/>
<point x="249" y="349" type="line"/>
</contour>
<contour>
<point x="259" y="339" type="line"/>
<point x="259" y="30" type="line"/>
<point x="260" y="29" type="line"/>
<point x="284" y="43"/>
<point x="304" y="63"/>
<point x="318" y="92" type="curve" smooth="yes"/>
<point x="319" y="93" type="line"/>
<point x="319" y="91"/>
<point x="339" y="133"/>
<point x="339" y="175" type="curve" smooth="yes"/>
<point x="340" y="176" type="line"/>
<point x="339" y="339" type="line"/>
<point x="259" y="339" type="line"/>
</contour>
<contour>
<point x="175" y="11" type="line"/>
<point x="176" y="11" type="line"/>
<point x="177" y="10" type="line"/>
<point x="202" y="11"/>
<point x="227" y="15"/>
<point x="249" y="25" type="curve" smooth="yes"/>
<point x="250" y="26" type="line"/>
<point x="249" y="134" type="line"/>
<point x="248" y="133" type="line"/>
<point x="249" y="132" type="line"/>
<point x="239" y="113"/>
<point x="218" y="89"/>
<point x="175" y="89" type="curve" smooth="yes"/>
<point x="176" y="90" type="line"/>
<point x="176" y="88" type="line"/>
<point x="131" y="89"/>
<point x="110" y="113"/>
<point x="101" y="133" type="curve" smooth="yes"/>
<point x="102" y="134" type="line"/>
<point x="102" y="132"/>
<point x="90" y="154"/>
<point x="90" y="175" type="curve" smooth="yes"/>
<point x="91" y="176" type="line"/>
<point x="90" y="340" type="line"/>
<point x="10" y="340" type="line"/>
<point x="10" y="175" type="line"/>
<point x="11" y="174"/>
<point x="10" y="134"/>
<point x="31" y="93" type="curve" smooth="yes"/>
<point x="32" y="94" type="line"/>
<point x="32" y="92" type="line"/>
<point x="58" y="39"/>
<point x="107" y="11"/>
<point x="175" y="11" type="curve" smooth="yes"/>
<point x="176" y="12" type="line"/>
</contour>
<contour>
<point x="339" y="10" type="line"/>
<point x="339" y="118" type="line"/>
<point x="340" y="117" type="line"/>
<point x="329" y="82"/>
<point x="306" y="41"/>
<point x="260" y="17" type="curve" smooth="yes"/>
<point x="261" y="18" type="line"/>
<point x="260" y="9" type="line"/>
</contour>
</outline>
</glyph>
<glyph name="uni0076" format="1">
	<advance width="310"/>
	<unicode hex="0076"/>
	<outline>
<contour>
<point x="210" y="351" type="line"/>
<point x="310" y="351" type="line"/>
<point x="205" y="1" type="line"/>
<point x="105" y="1" type="line"/>
<point x="0" y="351" type="line"/>
<point x="100" y="351" type="line"/>
<point x="155" y="167" type="line"/>
</contour>
<contour>
<point x="13" y="340" type="line"/>
<point x="110" y="17" type="line"/>
<point x="149" y="149" type="line"/>
<point x="93" y="341" type="line"/>
</contour>
<contour>
<point x="118" y="10" type="line"/>
<point x="192" y="10" type="line"/>
<point x="155" y="132" type="line"/>
</contour>
<contour>
<point x="200" y="18" type="line"/>
<point x="297" y="340" type="line"/>
<point x="217" y="340" type="line"/>
<point x="160" y="150" type="line"/>
</contour>
</outline>
</glyph>
<glyph name="uni0077" format="1">
	<advance width="520"/>
	<unicode hex="0077"/>
	<outline>
<contour>
<point x="420" y="350" type="line"/>
<point x="520" y="350" type="line"/>
<point x="415" y="-1" type="line"/>
<point x="315" y="-1" type="line"/>
<point x="260" y="183" type="line"/>
<point x="205" y="-1" type="line"/>
<point x="105" y="-1" type="line"/>
<point x="0" y="350" type="line"/>
<point x="100" y="350" type="line"/>
<point x="155" y="166" type="line"/>
<point x="210" y="350" type="line"/>
<point x="310" y="350" type="line"/>
<point x="365" y="166" type="line"/>
</contour>
<contour>
<point x="297" y="339" type="line"/>
<point x="223" y="339" type="line"/>
<point x="260" y="218" type="line"/>
</contour>
<contour>
<point x="13" y="340" type="line"/>
<point x="110" y="17" type="line"/>
<point x="149" y="149" type="line"/>
<point x="93" y="340" type="line"/>
</contour>
<contour>
<point x="118" y="10" type="line"/>
<point x="191" y="10" type="line"/>
<point x="155" y="131" type="line"/>
</contour>
<contour>
<point x="160" y="149" type="line"/>
<point x="200" y="17" type="line"/>
<point x="255" y="200" type="line"/>
<point x="215" y="332" type="line"/>
</contour>
<contour>
<point x="265" y="200" type="line"/>
<point x="320" y="17" type="line"/>
<point x="360" y="149" type="line"/>
<point x="305" y="332" type="line"/>
</contour>
<contour>
<point x="328" y="10" type="line"/>
<point x="402" y="10" type="line"/>
<point x="365" y="131" type="line"/>
</contour>
<contour>
<point x="410" y="17" type="line"/>
<point x="507" y="340" type="line"/>
<point x="427" y="340" type="line"/>
<point x="370" y="149" type="line"/>
</contour>
</outline>
</glyph>
<glyph name="uni0078" format="1">
	<advance width="349"/>
	<unicode hex="0078"/>
	<outline>
<contour>
<point x="349" y="350" type="line"/>
<point x="225" y="175" type="line"/>
<point x="349" y="0" type="line"/>
<point x="249" y="0" type="line"/>
<point x="175" y="105" type="line"/>
<point x="100" y="0" type="line"/>
<point x="0" y="0" type="line"/>
<point x="125" y="175" type="line"/>
<point x="0" y="350" type="line"/>
<point x="100" y="350" type="line"/>
<point x="175" y="245" type="line"/>
<point x="249" y="350" type="line"/>
</contour>
<contour>
<point x="254" y="340" type="line"/>
<point x="181" y="237" type="line"/>
<point x="218" y="184" type="line"/>
<point x="330" y="340" type="line"/>
</contour>
<contour>
<point x="212" y="175" type="line"/>
<point x="175" y="228" type="line"/>
<point x="137" y="175" type="line"/>
<point x="175" y="122" type="line"/>
</contour>
<contour>
<point x="19" y="340" type="line"/>
<point x="131" y="184" type="line"/>
<point x="168" y="237" type="line"/>
<point x="95" y="340" type="line"/>
</contour>
<contour>
<point x="95" y="10" type="line"/>
<point x="168" y="113" type="line"/>
<point x="131" y="166" type="line"/>
<point x="19" y="10" type="line"/>
</contour>
<contour>
<point x="254" y="10" type="line"/>
<point x="330" y="10" type="line"/>
<point x="218" y="166" type="line"/>
<point x="181" y="113" type="line"/>
</contour>
</outline>
</glyph>
<glyph name="uni0079" format="1">
	<advance width="349"/>
	<unicode hex="0079"/>
	<outline>
<contour>
<point x="249" y="350" type="line"/>
<point x="175" y="101" type="line"/>
<point x="100" y="350" type="line"/>
<point x="0" y="350" type="line"/>
<point x="105" y="1" type="line"/>
<point x="144" y="1" type="line"/>
<point x="64" y="-267" type="line"/>
<point x="164" y="-267" type="line"/>
<point x="349" y="350" type="line"/>
</contour>
<contour>
<point x="111" y="11" type="line"/>
<point x="13" y="340" type="line"/>
<point x="93" y="340" type="line"/>
<point x="169" y="84" type="line"/>
<point x="147" y="11" type="line"/>
</contour>
<contour>
<point x="175" y="67" type="line"/>
<point x="191" y="11" type="line"/>
<point x="158" y="11" type="line"/>
</contour>
<contour>
<point x="157" y="-257" type="line"/>
<point x="77" y="-257" type="line"/>
<point x="155" y="1" type="line"/>
<point x="205" y="1" type="line"/>
<point x="180" y="84" type="line"/>
<point x="256" y="340" type="line"/>
<point x="336" y="340" type="line"/>
</contour>
</outline>
</glyph>
<glyph name="uni007A" format="1">
	<advance width="349"/>
	<unicode hex="007A"/>
	<outline>
<contour>
<point x="161" y="100" type="line"/>
<point x="350" y="100" type="line"/>
<point x="350" y="0" type="line"/>
<point x="1" y="0" type="line"/>
<point x="1" y="98" type="line"/>
<point x="0" y="99" type="line"/>
<point x="1" y="100" type="line"/>
<point x="1" y="100" type="line"/>
<point x="1" y="100" type="line"/>
<point x="189" y="250" type="line"/>
<point x="0" y="250" type="line"/>
<point x="0" y="350" type="line"/>
<point x="349" y="350" type="line"/>
<point x="349" y="250" type="line"/>
<point x="348" y="250" type="line"/>
</contour>
<contour>
<point x="10" y="260" type="line"/>
<point x="201" y="260" type="line"/>
<point x="285" y="327" type="line"/>
<point x="339" y="262" type="line"/>
<point x="339" y="340" type="line"/>
<point x="10" y="340" type="line"/>
</contour>
<contour>
<point x="328" y="260" type="line"/>
<point x="284" y="314" type="line"/>
<point x="217" y="260" type="line"/>
</contour>
<contour>
<point x="205" y="250" type="line"/>
<point x="17" y="100" type="line"/>
<point x="145" y="100" type="line"/>
<point x="332" y="250" type="line"/>
</contour>
<contour>
<point x="132" y="90" type="line"/>
<point x="20" y="90" type="line"/>
<point x="64" y="35" type="line"/>
</contour>
<contour>
<point x="340" y="10" type="line"/>
<point x="340" y="90" type="line"/>
<point x="148" y="90" type="line"/>
<point x="62" y="21" type="line"/>
<point x="11" y="86" type="line"/>
<point x="11" y="10" type="line"/>
</contour>
</outline>
</glyph>
